<?xml version="1.0" encoding="UTF-8" standalone="no"?>
<svg
   aria-hidden="true"
   data-prefix="far"
   data-icon="moon"
   class="svg-inline--fa fa-moon fa-w-16"
   viewBox="0 0 512 512"
   version="1.1"
   id="svg1"
   sodipodi:docname="light-mode.svg"
   inkscape:version="1.3.2 (091e20e, 2023-11-25, custom)"
   xmlns:inkscape="http://www.inkscape.org/namespaces/inkscape"
   xmlns:sodipodi="http://sodipodi.sourceforge.net/DTD/sodipodi-0.dtd"
   xmlns="http://www.w3.org/2000/svg"
   xmlns:svg="http://www.w3.org/2000/svg">
  <defs
     id="defs1" />
  <sodipodi:namedview
     id="namedview1"
     pagecolor="#ffffff"
     bordercolor="#000000"
     borderopacity="0.25"
     inkscape:showpageshadow="2"
     inkscape:pageopacity="0.0"
     inkscape:pagecheckerboard="0"
     inkscape:deskcolor="#d1d1d1"
     inkscape:zoom="0.56692839"
     inkscape:cx="-48.507008"
     inkscape:cy="445.38253"
     inkscape:window-width="1920"
     inkscape:window-height="1017"
     inkscape:window-x="-8"
     inkscape:window-y="-8"
     inkscape:window-maximized="1"
     inkscape:current-layer="svg1" />
  <path
     id="sol"
     style="fill:#ffffff;stroke-width:0.778761"
     d="m 83.552047,241.00985 -0.06987,22.43673 c -0.0046,1.47527 -0.828244,2.6616 -1.846751,2.65992 L 2.0326863,265.97559 c -1.018507,-0.002 -1.83475995,-1.1907 -1.83016595,-2.66598 l 0.06987,-22.43673 c 0.0046,-1.47527 0.82824295,-2.6616 1.84674995,-2.65992 l 79.6027397,0.13092 c 1.018508,0.002 1.83476,1.19069 1.830167,2.66597 z M 138.0257,132.28192 122.30467,148.18851 c -1.03369,1.0459 -2.2856,1.46765 -2.80695,0.94562 L 78.750683,108.33462 c -0.521351,-0.52202 -0.108885,-1.78429 0.924806,-2.83019 L 95.396516,89.597838 c 1.033699,-1.0459 2.285599,-1.46764 2.806951,-0.94562 l 40.747043,40.799512 c 0.52135,0.52203 0.10889,1.78429 -0.92481,2.83019 z M 90.32584,425.71436 76.743365,407.92366 c -0.89308,-1.1698 -1.142637,-2.4746 -0.559528,-2.9256 l 45.573383,-35.24952 c 0.5831,-0.45102 1.77151,0.12763 2.66459,1.29741 l 13.58248,17.79068 c 0.89308,1.16978 1.14263,2.47461 0.55953,2.92563 l -45.573384,35.2495 c -0.583105,0.451 -1.771512,-0.1276 -2.664596,-1.2974 z M 392.52746,154.81038 378.94498,137.01971 c -0.89307,-1.16978 -1.14263,-2.47461 -0.55953,-2.92563 l 45.57339,-35.249512 c 0.5831,-0.45101 1.77152,0.12764 2.6646,1.297422 l 13.58247,17.79067 c 0.89308,1.16979 1.14263,2.47461 0.55953,2.92562 l -45.57339,35.24951 c -0.5831,0.45102 -1.77151,-0.12763 -2.66459,-1.29741 z m 53.43761,251.20248 -14.18284,17.3095 c -0.93257,1.1381 -2.14006,1.6753 -2.70736,1.2044 l -44.34093,-36.80768 c -0.56729,-0.47092 -0.27327,-1.7663 0.65929,-2.90449 l 14.18284,-17.30954 c 0.93256,-1.13813 2.14005,-1.67525 2.70734,-1.20434 l 44.34095,36.80765 c 0.56729,0.4709 0.27327,1.7663 -0.65929,2.9045 z m 66.4039,-165.24002 -0.0717,22.43674 c -0.005,1.47527 -0.85018,2.6616 -1.89564,2.65992 l -81.71015,-0.13123 c -1.04546,-0.002 -1.88333,-1.1907 -1.87861,-2.66597 l 0.0717,-22.43674 c 0.005,-1.47527 0.85017,-2.66159 1.89564,-2.65992 l 81.71014,0.1306 c 1.04547,0.002 1.88334,1.19071 1.87862,2.66598 z M 247.2004,10.865448 l 22.29119,1.9e-5 c 1.4657,-1.09e-4 2.64567,0.792691 2.64567,1.777351 l -1e-5,76.95712 c 6e-5,0.98466 -1.17996,1.77735 -2.64566,1.77735 l -22.29119,-2e-5 c -1.4657,1.1e-4 -2.64567,-0.79269 -2.64567,-1.77735 v -76.95711 c -6e-5,-0.98466 1.17997,-1.77737 2.64567,-1.77736 z m 1.96124,418.593212 22.29119,10e-5 c 1.46569,0 2.64567,0.749 2.64567,1.6793 v 72.7112 c 2.3e-4,0.9303 -1.17997,1.6793 -2.64567,1.6793 l -22.29119,-2e-4 c -1.46569,0 -2.64567,-0.7489 -2.64567,-1.6793 v -72.7112 c -2.3e-4,-0.9303 1.17997,-1.6793 2.64567,-1.6793 z m 9.31692,-327.44871 a 157.7721,158.80267 2.6793278e-5 0 0 -64.11172,14.09432 157.7721,158.80267 2.6793278e-5 0 0 -80.93843,205.08471 157.7721,158.80267 2.6793278e-5 0 0 200.84217,88.49218 157.7721,158.80267 2.6793278e-5 0 0 94.79276,-198.98041 L 400.7926,190.44949 A 157.7721,158.80267 2.6793278e-5 0 0 258.47856,102.00995 Z m 0.6279,33.95993 a 123.89677,123.09272 89.999994 0 1 111.03209,69.00037 l 6.45118,15.79836 a 123.89677,123.09272 89.999994 0 1 -73.95557,155.24486 123.89677,123.09272 89.999994 0 1 -156.69501,-69.04112 123.89677,123.09272 89.999994 0 1 63.14791,-160.00699 123.89677,123.09272 89.999994 0 1 50.0194,-10.99548 z"
     inkscape:label="sol" />
</svg>
