<?xml version="1.0" encoding="UTF-8" standalone="no"?>
<!-- Created with Inkscape (http://www.inkscape.org/) -->

<svg
   width="112.228"
   height="96.227997"
   viewBox="0 0 29.693676 25.460329"
   version="1.1"
   id="svg1"
   inkscape:version="1.3.2 (091e20e, 2023-11-25, custom)"
   sodipodi:docname="logo1.svg"
   xmlns:inkscape="http://www.inkscape.org/namespaces/inkscape"
   xmlns:sodipodi="http://sodipodi.sourceforge.net/DTD/sodipodi-0.dtd"
   xmlns:xlink="http://www.w3.org/1999/xlink"
   xmlns="http://www.w3.org/2000/svg"
   xmlns:svg="http://www.w3.org/2000/svg">
  <style
     id="style1">#circulo2 {   }
</style>
  <sodipodi:namedview
     id="namedview1"
     pagecolor="#ffffff"
     bordercolor="#000000"
     borderopacity="0.25"
     inkscape:showpageshadow="true"
     inkscape:pageopacity="0.0"
     inkscape:pagecheckerboard="false"
     inkscape:deskcolor="#d1d1d1"
     inkscape:document-units="mm"
     inkscape:zoom="33.098946"
     inkscape:cx="53.098367"
     inkscape:cy="54.155802"
     inkscape:window-width="1920"
     inkscape:window-height="1027"
     inkscape:window-x="1912"
     inkscape:window-y="-8"
     inkscape:window-maximized="1"
     inkscape:current-layer="g1" />
  <defs
     id="defs1">
    <linearGradient
       id="swatch32"
       inkscape:swatch="solid">
      <stop
         style="stop-color:#ffffff;stop-opacity:1;"
         offset="0"
         id="stop32" />
    </linearGradient>
    <linearGradient
       id="linearGradient63"
       inkscape:collect="always">
      <stop
         style="stop-color:#9c813f;stop-opacity:1;"
         offset="0.19883041"
         id="stop63" />
      <stop
         style="stop-color:#ccbf9d;stop-opacity:1;"
         offset="0.80116957"
         id="stop65" />
      <stop
         style="stop-color:#e4decc;stop-opacity:1;"
         offset="0.90569794"
         id="stop66" />
      <stop
         style="stop-color:#fdfdfb;stop-opacity:1;"
         offset="1"
         id="stop64" />
    </linearGradient>
    <linearGradient
       id="linearGradient21"
       inkscape:collect="always">
      <stop
         style="stop-color:#b59b5a;stop-opacity:1;"
         offset="0"
         id="stop21" />
      <stop
         style="stop-color:#b59b5a;stop-opacity:1;"
         offset="1"
         id="stop22" />
    </linearGradient>
    <linearGradient
       id="linearGradient19"
       inkscape:collect="always">
      <stop
         style="stop-color:#e0d498;stop-opacity:1;"
         offset="0"
         id="stop19" />
      <stop
         style="stop-color:#e0d498;stop-opacity:1;"
         offset="1"
         id="stop20" />
    </linearGradient>
    <linearGradient
       id="linearGradient17"
       inkscape:collect="always">
      <stop
         style="stop-color:#cfc286;stop-opacity:1;"
         offset="0"
         id="stop17" />
      <stop
         style="stop-color:#cfc286;stop-opacity:1;"
         offset="1"
         id="stop18" />
    </linearGradient>
    <linearGradient
       id="linearGradient15"
       inkscape:collect="always">
      <stop
         style="stop-color:#af9b55;stop-opacity:1;"
         offset="0"
         id="stop15" />
      <stop
         style="stop-color:#af9b55;stop-opacity:1;"
         offset="1"
         id="stop16" />
    </linearGradient>
    <linearGradient
       id="linearGradient3"
       inkscape:collect="always">
      <stop
         style="stop-color:#8f722c;stop-opacity:1;"
         offset="0"
         id="stop3" />
      <stop
         style="stop-color:#c6b17a;stop-opacity:1;"
         offset="0.74412274"
         id="stop6" />
      <stop
         style="stop-color:#e2d0a1;stop-opacity:1;"
         offset="0.91455662"
         id="stop7" />
      <stop
         style="stop-color:#fef0c8;stop-opacity:1;"
         offset="0.99999952"
         id="stop4" />
    </linearGradient>
    <linearGradient
       inkscape:collect="always"
       xlink:href="#linearGradient3"
       id="linearGradient4"
       x1="72.407486"
       y1="119.05563"
       x2="160.57034"
       y2="119.74055"
       gradientUnits="userSpaceOnUse"
       gradientTransform="matrix(-0.00174871,-0.14551497,0.14770316,-0.00172281,-2.6375463,29.505952)"
       spreadMethod="pad" />
    <linearGradient
       inkscape:collect="always"
       xlink:href="#linearGradient15"
       id="linearGradient16"
       x1="92.339584"
       y1="215.57573"
       x2="101.74519"
       y2="215.57573"
       gradientUnits="userSpaceOnUse"
       gradientTransform="matrix(0.10615725,0,0,0.11186036,-23.933142,-8.4423738)" />
    <linearGradient
       inkscape:collect="always"
       xlink:href="#linearGradient17"
       id="linearGradient18"
       x1="78.052086"
       y1="209.4903"
       x2="87.457687"
       y2="209.4903"
       gradientUnits="userSpaceOnUse"
       gradientTransform="matrix(0.10615725,0,0,0.11186037,-20.972177,-7.7489685)" />
    <linearGradient
       inkscape:collect="always"
       xlink:href="#linearGradient19"
       id="linearGradient20"
       x1="87.264709"
       y1="201.95584"
       x2="96.670311"
       y2="201.95584"
       gradientUnits="userSpaceOnUse"
       gradientTransform="matrix(0.10615724,0,0,0.11186037,-21.953099,-8.6884262)" />
    <linearGradient
       inkscape:collect="always"
       xlink:href="#linearGradient21"
       id="linearGradient22"
       x1="84.666664"
       y1="230.12779"
       x2="94.072266"
       y2="230.12779"
       gradientUnits="userSpaceOnUse"
       gradientTransform="matrix(0.10615746,0,0,0.11186018,-23.206927,-11.912256)" />
    <linearGradient
       inkscape:collect="always"
       xlink:href="#linearGradient63"
       id="linearGradient64"
       x1="74.508995"
       y1="198.95743"
       x2="144.91962"
       y2="205.93089"
       gradientUnits="userSpaceOnUse"
       gradientTransform="matrix(-0.01851527,-0.18772033,0.19802659,-0.02801863,-23.171161,38.679517)" />
    <linearGradient
       inkscape:collect="always"
       xlink:href="#swatch32"
       id="linearGradient32"
       x1="94.8181"
       y1="142.67842"
       x2="155.4996"
       y2="142.67842"
       gradientUnits="userSpaceOnUse" />
  </defs>
  <g
     inkscape:label="Capa 1"
     inkscape:groupmode="layer"
     id="layer1"
     style="display:inline">
    <g
       id="g1"
       transform="translate(-0.12789934,-1.6626914)">
      <rect
         style="fill:url(#linearGradient16);fill-opacity:1;fill-rule:nonzero;stroke:none;stroke-width:0.030403;stroke-dasharray:none"
         id="ventana4"
         width="0.99847299"
         height="1.0521144"
         x="-14.130604"
         y="15.145947"
         transform="matrix(5.8661586e-4,-0.99999983,0.99999986,5.2832429e-4,0,0)"
         inkscape:label="ventana4" />
      <rect
         style="fill:url(#linearGradient18);fill-rule:nonzero;stroke:none;stroke-width:0.030403;stroke-dasharray:none"
         id="ventana2"
         width="0.99847299"
         height="1.0521142"
         x="-12.686384"
         y="15.158626"
         transform="matrix(0.00119339,-0.99999929,0.99999942,0.0010748,0,0)"
         inkscape:label="ventana2" />
      <rect
         style="fill:url(#linearGradient20);fill-rule:nonzero;stroke:none;stroke-width:0.030403;stroke-dasharray:none"
         id="ventana1"
         width="0.99847299"
         height="1.0521144"
         x="-12.689316"
         y="13.37637"
         transform="rotate(-90)"
         inkscape:label="ventana1" />
      <rect
         style="fill:url(#linearGradient22);fill-opacity:1;fill-rule:nonzero;stroke:none;stroke-width:0.0304029;stroke-dasharray:none"
         id="rect14-6"
         width="0.9984749"
         height="1.0521125"
         x="-14.218931"
         y="13.30382"
         transform="matrix(-0.00626635,-0.99998037,0.99998407,-0.00564368,0,0)"
         inkscape:label="ventana3" />
      <rect
         style="display:inline;fill:#9c813f;fill-opacity:1;fill-rule:nonzero;stroke:none;stroke-width:0.0228414;stroke-dasharray:none"
         id="rect7-5"
         width="5.8913455"
         height="1.0317755"
         x="3.9043341"
         y="15.962467"
         ry="0" />
      <rect
         style="display:inline;opacity:1;fill:#9c813f;fill-opacity:1;fill-rule:nonzero;stroke:none;stroke-width:0.0230927;stroke-dasharray:none"
         id="rect7"
         width="6.0217404"
         height="1.0317755"
         x="19.904861"
         y="15.957804"
         ry="0" />
      <path
         id="path59"
         style="opacity:1;fill:url(#linearGradient64);fill-rule:nonzero;stroke:none;stroke-width:0.0553091;stroke-dasharray:none"
         d="m 15.130342,5.2415775 c -0.370535,-0.00624 -0.74625,0.016385 -1.124581,0.069921 -4.0354854,0.5710185 -6.8420695,3.9608662 -6.3722617,8.0590145 0.1531382,1.335824 0.4907402,2.582716 1.2051322,3.487123 l 0.8961046,0.05774 C 9.0740605,16.136743 8.8084693,15.217777 8.7203302,13.931706 8.4634444,10.183228 10.27029,6.4955509 13.92204,6.1024346 c 3.6517,-0.3931092 7.268654,2.2141827 7.525492,5.9626164 0.135152,1.972592 -0.395119,3.551966 -1.524503,4.792583 l 1.028597,-0.08932 c 1.03036,-1.368312 1.432768,-2.914285 1.228703,-4.983242 C 21.813241,8.0632969 18.712178,5.3016933 15.130342,5.2415765 Z"
         sodipodi:nodetypes="scscccscccss" />
      <path
         id="circulo2"
         style="opacity:1;fill:url(#linearGradient4);fill-rule:nonzero;stroke:none;stroke-width:0.0409058;stroke-dasharray:none"
         d="M 14.768007,5.9545933 A 6.7318681,6.632137 0 0 0 8.1162316,12.66481 6.7318681,6.632137 0 0 0 9.7931704,16.930476 V 10.88164 l 0.0018,10e-7 -0.00123,-0.0024 1.4124546,-0.9567019 V 7.5785094 h 1.152467 v 1.563327 l 2.470757,-1.6735574 7.41e-4,0.00141 0.02248,-0.02856 5.037704,3.466936 0.0098,0 v 0.0068 l 0.0032,0.0021 -0.0032,0.0041 v 6.046367 a 6.7318681,6.632137 0 0 0 1.678863,-4.459829 6.7318681,6.632137 0 0 0 -6.811003,-6.5531717 z m 0.06149,2.518793 -4.074466,2.7597717 v 6.600091 a 6.7318681,6.632137 0 0 0 0.760694,0.500106 v -6.672474 h 0.0051 l -0.0028,-0.0085 1.624354,-1.175616 1.628209,-1.1701501 1.643169,1.1759251 1.63509,1.178296 h 0.0074 v 6.754452 a 6.7318681,6.632137 0 0 0 0.882198,-0.56404 l -1e-6,-6.550284 z"
         inkscape:label="circulo2" />
      <path
         id="marco-puerta"
         style="display:inline;fill:none;stroke-width:0.390599"
         inkscape:label="marco-puerta"
         d="m 13.56999,15.533095 v 3.260925 a 4.8652357,3.5173477 0 0 0 0.112566,0.02029 v -3.127175 h 2.139257 v 3.173496 a 4.8652357,3.5173477 0 0 0 0.138394,-0.01978 v -3.307763 z" />
      <path
         id="puerta"
         style="fill:none;stroke-width:0.371357"
         d="m 13.664291,15.634748 v 3.174954 a 4.5169905,3.4244257 0 0 0 1.286176,0.134128 4.5169905,3.4244257 0 0 0 0.932692,-0.08863 v -3.220457 z"
         inkscape:label="puerta" />
    </g>
  </g>
</svg>
