<?xml version="1.0" encoding="UTF-8" standalone="no"?>
<!-- Created with Inkscape (http://www.inkscape.org/) -->

<svg
   width="1280"
   height="300"
   viewBox="0 0 338.66619 79.375014"
   version="1.1"
   id="svg1"
   inkscape:version="1.3.2 (091e20e, 2023-11-25, custom)"
   sodipodi:docname="logo.svg"
   xmlns:inkscape="http://www.inkscape.org/namespaces/inkscape"
   xmlns:sodipodi="http://sodipodi.sourceforge.net/DTD/sodipodi-0.dtd"
   xmlns:xlink="http://www.w3.org/1999/xlink"
   xmlns="http://www.w3.org/2000/svg"
   xmlns:svg="http://www.w3.org/2000/svg">
  <style
     id="style1">#circulo2 {   }
</style>
  <sodipodi:namedview
     id="namedview1"
     pagecolor="#ffffff"
     bordercolor="#000000"
     borderopacity="0.25"
     inkscape:showpageshadow="true"
     inkscape:pageopacity="0.0"
     inkscape:pagecheckerboard="false"
     inkscape:deskcolor="#d1d1d1"
     inkscape:document-units="mm"
     inkscape:zoom="0.51717104"
     inkscape:cx="429.25837"
     inkscape:cy="-126.65056"
     inkscape:window-width="1920"
     inkscape:window-height="1017"
     inkscape:window-x="-8"
     inkscape:window-y="-8"
     inkscape:window-maximized="1"
     inkscape:current-layer="g1" />
  <defs
     id="defs1">
    <linearGradient
       id="swatch32"
       inkscape:swatch="solid">
      <stop
         style="stop-color:#ffffff;stop-opacity:1;"
         offset="0"
         id="stop32" />
    </linearGradient>
    <linearGradient
       id="linearGradient63"
       inkscape:collect="always">
      <stop
         style="stop-color:#9c813f;stop-opacity:1;"
         offset="0.19883041"
         id="stop63" />
      <stop
         style="stop-color:#ccbf9d;stop-opacity:1;"
         offset="0.80116957"
         id="stop65" />
      <stop
         style="stop-color:#e4decc;stop-opacity:1;"
         offset="0.90569794"
         id="stop66" />
      <stop
         style="stop-color:#fdfdfb;stop-opacity:1;"
         offset="1"
         id="stop64" />
    </linearGradient>
    <linearGradient
       id="linearGradient21"
       inkscape:collect="always">
      <stop
         style="stop-color:#b59b5a;stop-opacity:1;"
         offset="0"
         id="stop21" />
      <stop
         style="stop-color:#b59b5a;stop-opacity:1;"
         offset="1"
         id="stop22" />
    </linearGradient>
    <linearGradient
       id="linearGradient19"
       inkscape:collect="always">
      <stop
         style="stop-color:#e0d498;stop-opacity:1;"
         offset="0"
         id="stop19" />
      <stop
         style="stop-color:#e0d498;stop-opacity:1;"
         offset="1"
         id="stop20" />
    </linearGradient>
    <linearGradient
       id="linearGradient17"
       inkscape:collect="always">
      <stop
         style="stop-color:#cfc286;stop-opacity:1;"
         offset="0"
         id="stop17" />
      <stop
         style="stop-color:#cfc286;stop-opacity:1;"
         offset="1"
         id="stop18" />
    </linearGradient>
    <linearGradient
       id="linearGradient15"
       inkscape:collect="always">
      <stop
         style="stop-color:#af9b55;stop-opacity:1;"
         offset="0"
         id="stop15" />
      <stop
         style="stop-color:#af9b55;stop-opacity:1;"
         offset="1"
         id="stop16" />
    </linearGradient>
    <linearGradient
       id="linearGradient3"
       inkscape:collect="always">
      <stop
         style="stop-color:#8f722c;stop-opacity:1;"
         offset="0"
         id="stop3" />
      <stop
         style="stop-color:#c6b17a;stop-opacity:1;"
         offset="0.74412274"
         id="stop6" />
      <stop
         style="stop-color:#e2d0a1;stop-opacity:1;"
         offset="0.91455662"
         id="stop7" />
      <stop
         style="stop-color:#fef0c8;stop-opacity:1;"
         offset="0.99999952"
         id="stop4" />
    </linearGradient>
    <linearGradient
       inkscape:collect="always"
       xlink:href="#linearGradient3"
       id="linearGradient4"
       x1="72.407486"
       y1="119.05563"
       x2="160.57034"
       y2="119.74055"
       gradientUnits="userSpaceOnUse"
       gradientTransform="matrix(-0.00690681,-0.57473514,0.58337775,-0.00680452,-15.583887,109.01821)"
       spreadMethod="pad" />
    <linearGradient
       inkscape:collect="always"
       xlink:href="#linearGradient15"
       id="linearGradient16"
       x1="92.339584"
       y1="215.57573"
       x2="101.74519"
       y2="215.57573"
       gradientUnits="userSpaceOnUse"
       gradientTransform="matrix(0.41928539,0,0,0.44181076,-87.010172,-38.515418)" />
    <linearGradient
       inkscape:collect="always"
       xlink:href="#linearGradient17"
       id="linearGradient18"
       x1="78.052086"
       y1="209.4903"
       x2="87.457687"
       y2="209.4903"
       gradientUnits="userSpaceOnUse"
       gradientTransform="matrix(0.4192854,0,0,0.4418108,-75.318175,-35.781254)" />
    <linearGradient
       inkscape:collect="always"
       xlink:href="#linearGradient19"
       id="linearGradient20"
       x1="87.264709"
       y1="201.95584"
       x2="96.670311"
       y2="201.95584"
       gradientUnits="userSpaceOnUse"
       gradientTransform="matrix(0.41928536,0,0,0.4418108,-79.186942,-39.482825)" />
    <linearGradient
       inkscape:collect="always"
       xlink:href="#linearGradient21"
       id="linearGradient22"
       x1="84.666664"
       y1="230.12779"
       x2="94.072266"
       y2="230.12779"
       gradientUnits="userSpaceOnUse"
       gradientTransform="matrix(0.41928623,0,0,0.44181004,-84.110087,-52.16865)" />
    <linearGradient
       inkscape:collect="always"
       xlink:href="#linearGradient63"
       id="linearGradient64"
       x1="74.508995"
       y1="198.95743"
       x2="144.91962"
       y2="205.93089"
       gradientUnits="userSpaceOnUse"
       gradientTransform="matrix(-0.07312908,-0.7414321,0.78213835,-0.11066416,-96.684741,145.2507)" />
    <linearGradient
       inkscape:collect="always"
       xlink:href="#swatch32"
       id="linearGradient32"
       x1="94.8181"
       y1="142.67842"
       x2="155.4996"
       y2="142.67842"
       gradientUnits="userSpaceOnUse" />
  </defs>
  <g
     inkscape:label="Capa 1"
     inkscape:groupmode="layer"
     id="layer1"
     style="display:inline">
    <g
       id="g1"
       transform="translate(-0.12789934,-1.6626914)">
      <rect
         style="fill:url(#linearGradient16);fill-opacity:1;fill-rule:nonzero;stroke:none;stroke-width:0.120081;stroke-dasharray:none"
         id="ventana4"
         width="3.9436324"
         height="4.1554976"
         x="-48.293465"
         y="54.650497"
         transform="matrix(5.8661586e-4,-0.99999983,0.99999986,5.2832429e-4,0,0)"
         inkscape:label="ventana4" />
      <rect
         style="fill:url(#linearGradient18);fill-rule:nonzero;stroke:none;stroke-width:0.120081;stroke-dasharray:none"
         id="ventana2"
         width="3.9436324"
         height="4.1554971"
         x="-42.59211"
         y="54.69606"
         transform="matrix(0.00119339,-0.99999929,0.99999942,0.0010748,0,0)"
         inkscape:label="ventana2" />
      <rect
         style="fill:url(#linearGradient20);fill-rule:nonzero;stroke:none;stroke-width:0.120081;stroke-dasharray:none"
         id="ventana1"
         width="3.9436324"
         height="4.1554976"
         x="-42.598118"
         y="47.665695"
         transform="rotate(-90)"
         inkscape:label="ventana1" />
      <rect
         style="fill:url(#linearGradient22);fill-opacity:1;fill-rule:nonzero;stroke:none;stroke-width:0.120081;stroke-dasharray:none"
         id="rect14-6"
         width="3.9436398"
         height="4.1554899"
         x="-48.610565"
         y="47.426369"
         transform="matrix(-0.00626635,-0.99998037,0.99998407,-0.00564368,0,0)"
         inkscape:label="ventana3" />
      <rect
         style="display:inline;fill:#9c813f;fill-opacity:1;fill-rule:nonzero;stroke:none;stroke-width:0.0902162;stroke-dasharray:none"
         id="rect8"
         width="23.268831"
         height="4.0751657"
         x="10.254333"
         y="55.525967"
         ry="0" />
      <rect
         style="display:inline;opacity:1;fill:#9c813f;fill-opacity:1;fill-rule:nonzero;stroke:none;stroke-width:0.0912081;stroke-dasharray:none"
         id="rect7"
         width="23.783848"
         height="4.0751657"
         x="73.451035"
         y="55.507549"
         ry="0" />
      <path
         id="path59"
         style="opacity:1;fill:url(#linearGradient64);fill-rule:nonzero;stroke:none;stroke-width:0.218452;stroke-dasharray:none"
         d="m 54.593289,13.182056 c -1.463488,-0.02464 -2.947435,0.06472 -4.441716,0.276165 -15.938808,2.255332 -27.023871,15.64409 -25.168288,31.830397 0.604844,5.276055 1.938259,10.200858 4.759867,13.772961 l 3.539311,0.228054 c -2.609446,-3.075339 -3.658442,-6.704944 -4.006562,-11.784492 -1.014612,-14.805226 6.12182,-29.370309 20.545003,-30.922987 14.422985,-1.55265 28.708735,8.745277 29.723159,23.550328 0.533805,7.791074 -1.560587,14.02907 -6.021274,18.929089 l 4.062613,-0.352784 C 81.654977,53.304415 83.244353,47.198343 82.438365,39.026659 80.988491,24.3269 68.740336,13.419494 54.593289,13.182052 Z"
         sodipodi:nodetypes="scscccscccss" />
      <path
         id="circulo2"
         style="opacity:1;fill:url(#linearGradient4);fill-rule:nonzero;stroke:none;stroke-width:0.161564;stroke-dasharray:none"
         d="M 53.162188,15.99823 A 26.588612,26.194708 0 0 0 26.889916,42.501328 26.588612,26.194708 0 0 0 33.513259,59.349273 V 35.458407 l 0.0072,4e-6 -0.0049,-0.0095 5.578721,-3.77865 V 22.41213 h 4.551856 v 6.174616 l 9.758658,-6.609989 0.0029,0.0056 0.08879,-0.112803 19.897235,13.69323 h 0.03871 v 0.02686 l 0.01264,0.0083 -0.01264,0.0162 V 59.495236 A 26.588612,26.194708 0 0 0 80.063345,41.880413 26.588612,26.194708 0 0 0 53.162177,15.99759 Z m 0.242865,9.948386 -16.092769,10.900169 v 26.068137 a 26.588612,26.194708 0 0 0 3.004486,1.97525 V 38.536146 h 0.02014 l -0.01106,-0.03357 6.415652,-4.643287 6.430877,-4.621699 6.489964,4.644508 6.458055,4.653873 h 0.02923 v 26.677811 a 26.588612,26.194708 0 0 0 3.484385,-2.227768 l -4e-6,-25.871416 z"
         inkscape:label="circulo2" />
      <path
         id="marco-puerta"
         style="display:inline;fill:none;stroke-width:1.54273"
         inkscape:label="marco-puerta"
         d="m 48.430424,53.830088 v 12.879556 a 19.216043,13.892339 0 0 0 0.444599,0.08014 v -12.35129 h 8.449344 v 12.534241 a 19.216043,13.892339 0 0 0 0.54661,-0.07813 V 53.830061 Z" />
      <path
         id="puerta"
         style="fill:none;stroke-width:1.46673"
         d="m 48.802882,54.231583 v 12.54 a 17.840591,13.525328 0 0 0 5.079962,0.52976 17.840591,13.525328 0 0 0 3.683819,-0.350059 V 54.231563 Z"
         inkscape:label="puerta" />
      <path
         d="M 122.99741,51.727233 V 40.536392 h -11.46887 v 11.190841 h -3.0236 V 27.39931 h 3.0236 v 10.28724 h 11.46887 V 27.39931 h 3.02362 v 24.327923 z m 24.46694,0 -2.08524,-5.942962 h -9.66166 l -2.05048,5.942962 h -3.16264 l 8.61903,-24.327923 h 2.81509 l 8.61903,24.327923 z m -3.02359,-8.619034 -3.12788,-9.001329 q -0.59083,-1.702955 -0.76461,-2.467547 -0.38229,1.355414 -0.76457,2.467547 l -3.16264,9.001329 z M 155.04079,27.39931 h 8.61902 q 3.99675,0 5.76919,1.841973 1.80724,1.841973 1.80724,4.587553 0,1.668201 -0.93837,3.023614 -0.93837,1.320659 -2.64131,2.050496 2.12,0.66033 3.26688,2.224268 1.18165,1.529182 1.18165,3.614433 0,1.320658 -0.41704,2.502299 -0.41707,1.181643 -1.28591,2.224268 -0.86885,1.042625 -2.46755,1.668201 -1.59869,0.590818 -3.7187,0.590818 h -9.1751 z m 8.0282,10.321994 q 2.53707,0 3.85775,-1.007872 1.32064,-1.042624 1.32064,-2.849842 0,-3.718697 -4.41378,-3.718697 h -5.7692 v 7.576411 z m 1.49444,11.225596 q 2.46756,0 3.51017,-1.146886 1.04261,-1.146887 1.04261,-2.849842 0,-4.483289 -5.6649,-4.483289 H 158.0644 V 48.9469 Z m 13.34562,2.780333 V 27.39931 h 3.0236 V 51.727233 Z M 196.05074,30.28391 v 21.443323 h -3.02361 V 30.28391 h -6.77706 v -2.8846 h 16.57772 v 2.8846 z m 24.04992,21.443323 -2.08527,-5.942962 h -9.66164 l -2.05051,5.942962 h -3.16263 l 8.61905,-24.327923 h 2.81509 l 8.61902,24.327923 z m -3.02361,-8.619034 -3.12788,-9.001329 q -0.59082,-1.702955 -0.7646,-2.467547 -0.38229,1.355414 -0.76459,2.467547 l -3.16263,9.001329 z M 233.30728,30.28391 V 51.727233 H 230.2837 V 30.28391 h -6.77708 v -2.8846 h 16.57774 v 2.8846 z m 12.02495,21.443323 V 27.39931 h 3.02362 v 21.408574 h 11.95544 v 2.919349 z m 27.97711,0.417051 q -8.72328,0 -8.72328,-9.557396 V 27.39931 h 3.0236 v 15.187578 q 0,3.718697 1.5292,5.213126 1.52918,1.494428 4.17048,1.494428 2.64134,0 4.17051,-1.494428 1.56393,-1.494429 1.56393,-5.213126 V 27.39931 h 3.02363 v 15.187578 q 0,9.557396 -8.75807,9.557396 z m 27.69904,-0.417051 -5.59539,-9.835428 -5.45644,9.835428 h -3.37114 l 7.22885,-12.581008 -6.70755,-11.746915 h 3.40592 l 5.00461,8.79281 4.93507,-8.79281 h 3.33641 l -6.67279,11.573143 7.29837,12.75478 z m 8.41055,0 V 27.39931 h 14.45773 v 2.849845 h -11.43411 v 7.472149 h 7.54163 v 2.849842 h -7.54163 v 8.271493 h 12.1987 v 2.884594 z"
         id="texto"
         style="font-size:14.1111px;font-family:Overpass;-inkscape-font-specification:'Overpass, Normal';fill:#ffffff;stroke-width:0.651641"
         aria-label="HABITATLUXE" />
    </g>
  </g>
</svg>
