<?xml version="1.0" encoding="UTF-8" standalone="no"?>
<svg
   aria-hidden="true"
   data-prefix="far"
   data-icon="moon"
   class="svg-inline--fa fa-moon fa-w-16"
   viewBox="0 0 512 644"
   version="1.1"
   id="svg1"
   sodipodi:docname="dark-mode.svg"
   inkscape:version="1.3.2 (091e20e, 2023-11-25, custom)"
   width="512"
   height="644"
   xmlns:inkscape="http://www.inkscape.org/namespaces/inkscape"
   xmlns:sodipodi="http://sodipodi.sourceforge.net/DTD/sodipodi-0.dtd"
   xmlns="http://www.w3.org/2000/svg"
   xmlns:svg="http://www.w3.org/2000/svg">
  <defs
     id="defs1" />
  <sodipodi:namedview
     id="namedview1"
     pagecolor="#ffffff"
     bordercolor="#000000"
     borderopacity="0.25"
     inkscape:showpageshadow="2"
     inkscape:pageopacity="0.0"
     inkscape:pagecheckerboard="0"
     inkscape:deskcolor="#d1d1d1"
     inkscape:zoom="0.56692839"
     inkscape:cx="271.63925"
     inkscape:cy="445.38253"
     inkscape:window-width="1920"
     inkscape:window-height="1017"
     inkscape:window-x="-8"
     inkscape:window-y="-8"
     inkscape:window-maximized="1"
     inkscape:current-layer="svg1" />
  <path
     fill="currentColor"
     d="m 279.135,512 c 78.756,0 150.982,-35.804 198.844,-94.775 28.27,-34.831 -2.558,-85.722 -46.249,-77.401 -82.348,15.683 -158.272,-47.268 -158.272,-130.792 0,-48.424 26.06,-92.292 67.434,-115.836 C 379.637,71.146 369.891,12.408 325.87,4.277 A 257.936,257.936 0 0 0 279.135,0 c -141.36,0 -256,114.575 -256,256 0,141.36 114.576,256 256,256 z m 0,-464 c 12.985,0 25.689,1.201 38.016,3.478 -54.76,31.163 -91.693,90.042 -91.693,157.554 0,113.848 103.641,199.2 215.252,177.944 C 402.574,433.964 344.366,464 279.135,464 c -114.875,0 -208,-93.125 -208,-208 0,-114.875 93.125,-208 208,-208 z"
     id="luna"
     style="fill:#ffffff"
     inkscape:label="luna" />
</svg>
