<?xml version="1.0" encoding="UTF-8" standalone="no"?>
<svg
   version="1.1"
   viewBox="0 -256 130 90"
   style="fill:#ffffff"
   id="svg1"
   sodipodi:docname="user.svg"
   width="130"
   height="90"
   inkscape:version="1.3.2 (091e20e, 2023-11-25, custom)"
   xmlns:inkscape="http://www.inkscape.org/namespaces/inkscape"
   xmlns:sodipodi="http://sodipodi.sourceforge.net/DTD/sodipodi-0.dtd"
   xmlns="http://www.w3.org/2000/svg"
   xmlns:svg="http://www.w3.org/2000/svg">
  <defs
     id="defs1" />
  <sodipodi:namedview
     id="namedview1"
     pagecolor="#ffffff"
     bordercolor="#000000"
     borderopacity="0.25"
     inkscape:showpageshadow="2"
     inkscape:pageopacity="0.0"
     inkscape:pagecheckerboard="0"
     inkscape:deskcolor="#d1d1d1"
     inkscape:zoom="3.6651786"
     inkscape:cx="95.220463"
     inkscape:cy="95.356882"
     inkscape:window-width="1920"
     inkscape:window-height="1017"
     inkscape:window-x="-8"
     inkscape:window-y="-8"
     inkscape:window-maximized="1"
     inkscape:current-layer="svg1" />
  <g
     transform="matrix(0.03537199,0,0,-0.03537199,18.442001,-200.18531)"
     id="g1"
     style="fill:#ffffff">
    <path
       d="M 1408,131 Q 1408,11 1335,-58.5 1262,-128 1141,-128 H 267 Q 146,-128 73,-58.5 0,11 0,131 0,184 3.5,234.5 7,285 17.5,343.5 28,402 44,452 q 16,50 43,97.5 27,47.5 62,81 35,33.5 85.5,53.5 50.5,20 111.5,20 9,0 42,-21.5 33,-21.5 74.5,-48 41.5,-26.5 108,-48 Q 637,565 704,565 q 67,0 133.5,21.5 66.5,21.5 108,48 41.5,26.5 74.5,48 33,21.5 42,21.5 61,0 111.5,-20 50.5,-20 85.5,-53.5 35,-33.5 62,-81 27,-47.5 43,-97.5 16,-50 26.5,-108.5 10.5,-58.5 14,-109 Q 1408,184 1408,131 Z m -320,893 Q 1088,865 975.5,752.5 863,640 704,640 545,640 432.5,752.5 320,865 320,1024 320,1183 432.5,1295.5 545,1408 704,1408 863,1408 975.5,1295.5 1088,1183 1088,1024 Z"
       id="path1"
       style="fill:#ffffff" />
  </g>
  <g
     id="g2"
     transform="matrix(0.5976494,0,0,0.5976494,31.377896,-86.877564)"
     style="fill:#ffffff">
    <path
       id="rect1-6"
       style="fill:#ffffff;stroke-width:0.496271"
       d="m -208.27461,-194.38641 c 0.0411,-0.0112 0.083,-0.016 0.12524,-0.016 l 5.18836,-2e-4 c 0.67509,0 1.21815,1.47062 1.21815,3.29786 l -1.8e-4,23.60771 c 0,1.82724 -0.54448,3.29877 -1.21957,3.29877 l -1.65722,-1e-4 -4.69972,-2.42891 c -0.0279,-0.27798 -0.0479,-0.56673 -0.0479,-0.86931 l 1.7e-4,-23.6077 c 0,-1.71304 0.47667,-3.11379 1.09264,-3.2821 z"
       transform="matrix(-0.94522867,0.32640888,0.53510699,0.8447843,0,0)" />
    <rect
       style="fill:#ffffff;stroke-width:0.480356"
       id="rect1-6-6"
       width="7.6737838"
       height="28.11726"
       x="-44.041534"
       y="-270.32315"
       rx="1.2264404"
       ry="3.070292"
       transform="matrix(0.95714242,0.28961766,-0.58584542,0.81042282,0,0)" />
  </g>
</svg>
